# xmcd
#
# Track frame offsets:
#	150
#	15574
#	28702
#	41896
#	55504
#	70857
#	83938
#	97121
#
# Disc length: 1473 seconds
#
# Revision: 1
# Processed by: cddbd v1.5.1PL0 Copyright (c) Steve Scherf et al.
# Submitted via: audiograbber 1.83.01
#
DISCID=6205bf08
DTITLE=Various Artist - Singing Machine G9131
DYEAR=1900
DGENRE=
TTITLE0=Anne Murray - Could I Have This Dance
TTITLE1=Tammy Wynette - Stand By Your Man
TTITLE2=Patsy Cline - Crazy
TTITLE3=Patsy Cline - I Fall To Pieces
TTITLE4=Anne Murray - Could I Have This Dance (vocals)
TTITLE5=Tammy Wynette - Stand By Your Man (vocals)
TTITLE6=Patsy Cline - Crazy (vocals)
TTITLE7=Patsy Cline - I Fall To Pieces (vocals)
EXTD=
EXTT0=
EXTT1=
EXTT2=
EXTT3=
EXTT4=
EXTT5=
EXTT6=
EXTT7=
PLAYORDER=
